<mxfile host="app.diagrams.net" modified="2022-05-04T17:43:48.099Z" agent="5.0 (Windows NT 10.0; Win64; x64) AppleWebKit/537.36 (KHTML, like Gecko) Chrome/100.0.4896.127 Safari/537.36" etag="29hlBUBIOBSTGVK2vRtp" version="17.5.0" type="github">
  <diagram id="2papMlzL8SEc6cXs3Vv7" name="Page-1">
    <mxGraphModel dx="1038" dy="547" grid="1" gridSize="10" guides="1" tooltips="1" connect="1" arrows="1" fold="1" page="1" pageScale="1" pageWidth="827" pageHeight="1169" math="0" shadow="0">
      <root>
        <mxCell id="0" />
        <mxCell id="1" parent="0" />
        <mxCell id="VTWnAAIRj82ITvTCDsZb-13" value="&lt;p style=&quot;margin: 0px ; margin-top: 4px ; text-align: center&quot;&gt;&lt;b&gt;Use Case Diagram for Library System By DCS-16&lt;/b&gt;&lt;/p&gt;&lt;hr size=&quot;1&quot;&gt;&lt;div style=&quot;height: 2px&quot;&gt;&lt;/div&gt;" style="verticalAlign=top;align=left;overflow=fill;fontSize=12;fontFamily=Helvetica;html=1;" parent="1" vertex="1">
          <mxGeometry x="110" y="90" width="607" height="990" as="geometry" />
        </mxCell>
        <mxCell id="81tsbfvJeieCF5N2Zwf--1" value="Borrower" style="shape=umlActor;verticalLabelPosition=bottom;verticalAlign=top;html=1;" parent="1" vertex="1">
          <mxGeometry x="30" y="510" width="30" height="60" as="geometry" />
        </mxCell>
        <mxCell id="81tsbfvJeieCF5N2Zwf--4" value="Librarian" style="shape=umlActor;verticalLabelPosition=bottom;verticalAlign=top;html=1;" parent="1" vertex="1">
          <mxGeometry x="770" y="470" width="30" height="60" as="geometry" />
        </mxCell>
        <mxCell id="81tsbfvJeieCF5N2Zwf--5" value="Borrow Books" style="ellipse;whiteSpace=wrap;html=1;" parent="1" vertex="1">
          <mxGeometry x="370" y="350" width="120" height="80" as="geometry" />
        </mxCell>
        <mxCell id="81tsbfvJeieCF5N2Zwf--8" value="" style="endArrow=none;html=1;rounded=0;strokeColor=default;exitX=0.5;exitY=0.5;exitDx=0;exitDy=0;exitPerimeter=0;entryX=0;entryY=0.5;entryDx=0;entryDy=0;" parent="1" source="81tsbfvJeieCF5N2Zwf--1" target="81tsbfvJeieCF5N2Zwf--5" edge="1">
          <mxGeometry width="50" height="50" relative="1" as="geometry">
            <mxPoint x="80" y="370" as="sourcePoint" />
            <mxPoint x="-100" y="320" as="targetPoint" />
          </mxGeometry>
        </mxCell>
        <mxCell id="81tsbfvJeieCF5N2Zwf--9" value="Return Books" style="ellipse;whiteSpace=wrap;html=1;" parent="1" vertex="1">
          <mxGeometry x="370" y="540" width="120" height="80" as="geometry" />
        </mxCell>
        <mxCell id="81tsbfvJeieCF5N2Zwf--10" value="" style="endArrow=none;html=1;rounded=0;strokeColor=default;exitX=0.5;exitY=0.5;exitDx=0;exitDy=0;exitPerimeter=0;entryX=0;entryY=0.5;entryDx=0;entryDy=0;" parent="1" source="81tsbfvJeieCF5N2Zwf--1" target="81tsbfvJeieCF5N2Zwf--9" edge="1">
          <mxGeometry width="50" height="50" relative="1" as="geometry">
            <mxPoint x="75" y="380" as="sourcePoint" />
            <mxPoint x="200" y="190" as="targetPoint" />
          </mxGeometry>
        </mxCell>
        <mxCell id="81tsbfvJeieCF5N2Zwf--11" value="Read Books in the campus" style="ellipse;whiteSpace=wrap;html=1;" parent="1" vertex="1">
          <mxGeometry x="135" y="850" width="120" height="80" as="geometry" />
        </mxCell>
        <mxCell id="81tsbfvJeieCF5N2Zwf--12" value="" style="endArrow=none;html=1;rounded=0;strokeColor=default;exitX=0.5;exitY=0.5;exitDx=0;exitDy=0;exitPerimeter=0;entryX=0;entryY=0.5;entryDx=0;entryDy=0;" parent="1" source="81tsbfvJeieCF5N2Zwf--1" target="81tsbfvJeieCF5N2Zwf--11" edge="1">
          <mxGeometry width="50" height="50" relative="1" as="geometry">
            <mxPoint x="75" y="380" as="sourcePoint" />
            <mxPoint x="200" y="290" as="targetPoint" />
          </mxGeometry>
        </mxCell>
        <mxCell id="81tsbfvJeieCF5N2Zwf--13" value="Add new books to the database" style="ellipse;whiteSpace=wrap;html=1;" parent="1" vertex="1">
          <mxGeometry x="530" y="130" width="120" height="80" as="geometry" />
        </mxCell>
        <mxCell id="81tsbfvJeieCF5N2Zwf--14" value="Keep records of the outgoing and returned books" style="ellipse;whiteSpace=wrap;html=1;" parent="1" vertex="1">
          <mxGeometry x="530" y="230" width="120" height="80" as="geometry" />
        </mxCell>
        <mxCell id="81tsbfvJeieCF5N2Zwf--15" value="Add comments if the returned books do not maintain their original condition" style="ellipse;whiteSpace=wrap;html=1;" parent="1" vertex="1">
          <mxGeometry x="520" y="610" width="140" height="100" as="geometry" />
        </mxCell>
        <mxCell id="81tsbfvJeieCF5N2Zwf--16" value="Make lists of overdue books" style="ellipse;whiteSpace=wrap;html=1;" parent="1" vertex="1">
          <mxGeometry x="530" y="755" width="120" height="80" as="geometry" />
        </mxCell>
        <mxCell id="81tsbfvJeieCF5N2Zwf--17" value="Register to be able to borrow books from the library" style="ellipse;whiteSpace=wrap;html=1;" parent="1" vertex="1">
          <mxGeometry x="365" y="240" width="130" height="90" as="geometry" />
        </mxCell>
        <mxCell id="81tsbfvJeieCF5N2Zwf--18" value="Cannot borrow books if the borrower has more than 3 books to return" style="ellipse;whiteSpace=wrap;html=1;" parent="1" vertex="1">
          <mxGeometry x="226" y="460" width="144" height="90" as="geometry" />
        </mxCell>
        <mxCell id="81tsbfvJeieCF5N2Zwf--20" value="&amp;lt;&amp;lt;include&amp;gt;&amp;gt;" style="endArrow=open;endSize=12;html=1;rounded=0;strokeColor=default;exitX=0.982;exitY=0.34;exitDx=0;exitDy=0;dashed=1;exitPerimeter=0;" parent="1" source="81tsbfvJeieCF5N2Zwf--18" target="81tsbfvJeieCF5N2Zwf--5" edge="1">
          <mxGeometry x="0.0113" y="-3" width="160" relative="1" as="geometry">
            <mxPoint x="310" y="460" as="sourcePoint" />
            <mxPoint x="470" y="460" as="targetPoint" />
            <mxPoint as="offset" />
          </mxGeometry>
        </mxCell>
        <mxCell id="81tsbfvJeieCF5N2Zwf--21" value="" style="endArrow=none;html=1;rounded=0;strokeColor=default;entryX=0;entryY=0.5;entryDx=0;entryDy=0;exitX=0.5;exitY=0.5;exitDx=0;exitDy=0;exitPerimeter=0;" parent="1" source="81tsbfvJeieCF5N2Zwf--1" target="81tsbfvJeieCF5N2Zwf--17" edge="1">
          <mxGeometry width="50" height="50" relative="1" as="geometry">
            <mxPoint x="65" y="370" as="sourcePoint" />
            <mxPoint x="150" y="290" as="targetPoint" />
          </mxGeometry>
        </mxCell>
        <mxCell id="81tsbfvJeieCF5N2Zwf--22" value="has to read or study quietly not to disturb other users" style="ellipse;whiteSpace=wrap;html=1;" parent="1" vertex="1">
          <mxGeometry x="135" y="960" width="120" height="90" as="geometry" />
        </mxCell>
        <mxCell id="81tsbfvJeieCF5N2Zwf--23" value="&amp;lt;&amp;lt;include&amp;gt;&amp;gt;" style="endArrow=open;endSize=12;html=1;rounded=0;strokeColor=default;exitX=0.5;exitY=0;exitDx=0;exitDy=0;dashed=1;entryX=0.5;entryY=1;entryDx=0;entryDy=0;" parent="1" source="81tsbfvJeieCF5N2Zwf--22" target="81tsbfvJeieCF5N2Zwf--11" edge="1">
          <mxGeometry x="-0.1029" y="1" width="160" relative="1" as="geometry">
            <mxPoint x="309.99831175456865" y="753.6301948466055" as="sourcePoint" />
            <mxPoint x="275.30916993971044" y="706.3701820491142" as="targetPoint" />
            <mxPoint as="offset" />
          </mxGeometry>
        </mxCell>
        <mxCell id="81tsbfvJeieCF5N2Zwf--24" value="Earn points if the books returned are in original condition to be able to borrow more books" style="ellipse;whiteSpace=wrap;html=1;" parent="1" vertex="1">
          <mxGeometry x="135" y="670" width="146" height="110" as="geometry" />
        </mxCell>
        <mxCell id="81tsbfvJeieCF5N2Zwf--25" value="&amp;lt;&amp;lt;extends&amp;gt;&amp;gt;" style="endArrow=open;endSize=12;dashed=1;html=1;rounded=0;strokeColor=default;exitX=0;exitY=1;exitDx=0;exitDy=0;entryX=0.689;entryY=0.031;entryDx=0;entryDy=0;entryPerimeter=0;" parent="1" source="81tsbfvJeieCF5N2Zwf--9" target="81tsbfvJeieCF5N2Zwf--24" edge="1">
          <mxGeometry x="0.2" width="160" relative="1" as="geometry">
            <mxPoint x="390" y="630" as="sourcePoint" />
            <mxPoint x="550" y="630" as="targetPoint" />
            <mxPoint as="offset" />
          </mxGeometry>
        </mxCell>
        <mxCell id="81tsbfvJeieCF5N2Zwf--28" value="Have to pay fines if the books are damaged" style="ellipse;whiteSpace=wrap;html=1;" parent="1" vertex="1">
          <mxGeometry x="294" y="675" width="120" height="80" as="geometry" />
        </mxCell>
        <mxCell id="81tsbfvJeieCF5N2Zwf--29" value="&amp;lt;&amp;lt;extends&amp;gt;&amp;gt;" style="endArrow=open;endSize=12;dashed=1;html=1;rounded=0;strokeColor=default;exitX=0.5;exitY=1;exitDx=0;exitDy=0;entryX=0.5;entryY=0;entryDx=0;entryDy=0;" parent="1" source="81tsbfvJeieCF5N2Zwf--9" target="81tsbfvJeieCF5N2Zwf--28" edge="1">
          <mxGeometry x="0.2" width="160" relative="1" as="geometry">
            <mxPoint x="381.57359312880726" y="623.2842712474619" as="sourcePoint" />
            <mxPoint x="205" y="670" as="targetPoint" />
            <mxPoint as="offset" />
          </mxGeometry>
        </mxCell>
        <mxCell id="81tsbfvJeieCF5N2Zwf--31" value="" style="endArrow=none;html=1;rounded=0;strokeColor=default;entryX=0.5;entryY=0.5;entryDx=0;entryDy=0;entryPerimeter=0;exitX=1;exitY=0.5;exitDx=0;exitDy=0;" parent="1" source="81tsbfvJeieCF5N2Zwf--17" target="81tsbfvJeieCF5N2Zwf--4" edge="1">
          <mxGeometry width="50" height="50" relative="1" as="geometry">
            <mxPoint x="565" y="410" as="sourcePoint" />
            <mxPoint x="615" y="360" as="targetPoint" />
          </mxGeometry>
        </mxCell>
        <mxCell id="81tsbfvJeieCF5N2Zwf--32" value="" style="endArrow=none;html=1;rounded=0;strokeColor=default;entryX=0.5;entryY=0.5;entryDx=0;entryDy=0;entryPerimeter=0;exitX=1;exitY=0.5;exitDx=0;exitDy=0;" parent="1" source="81tsbfvJeieCF5N2Zwf--5" target="81tsbfvJeieCF5N2Zwf--4" edge="1">
          <mxGeometry width="50" height="50" relative="1" as="geometry">
            <mxPoint x="271" y="225" as="sourcePoint" />
            <mxPoint x="785" y="390" as="targetPoint" />
          </mxGeometry>
        </mxCell>
        <mxCell id="81tsbfvJeieCF5N2Zwf--34" value="" style="endArrow=none;html=1;rounded=0;strokeColor=default;entryX=0.5;entryY=0.5;entryDx=0;entryDy=0;entryPerimeter=0;exitX=1;exitY=0.5;exitDx=0;exitDy=0;" parent="1" source="81tsbfvJeieCF5N2Zwf--9" target="81tsbfvJeieCF5N2Zwf--4" edge="1">
          <mxGeometry width="50" height="50" relative="1" as="geometry">
            <mxPoint x="484" y="400" as="sourcePoint" />
            <mxPoint x="785" y="390" as="targetPoint" />
          </mxGeometry>
        </mxCell>
        <mxCell id="81tsbfvJeieCF5N2Zwf--35" value="" style="endArrow=none;html=1;rounded=0;strokeColor=default;entryX=0.5;entryY=0.5;entryDx=0;entryDy=0;entryPerimeter=0;" parent="1" source="81tsbfvJeieCF5N2Zwf--15" target="81tsbfvJeieCF5N2Zwf--4" edge="1">
          <mxGeometry width="50" height="50" relative="1" as="geometry">
            <mxPoint x="494" y="410" as="sourcePoint" />
            <mxPoint x="795" y="400" as="targetPoint" />
          </mxGeometry>
        </mxCell>
        <mxCell id="81tsbfvJeieCF5N2Zwf--36" value="" style="endArrow=none;html=1;rounded=0;strokeColor=default;entryX=0.5;entryY=0.5;entryDx=0;entryDy=0;entryPerimeter=0;exitX=1;exitY=0;exitDx=0;exitDy=0;" parent="1" source="81tsbfvJeieCF5N2Zwf--16" target="81tsbfvJeieCF5N2Zwf--4" edge="1">
          <mxGeometry width="50" height="50" relative="1" as="geometry">
            <mxPoint x="504" y="420" as="sourcePoint" />
            <mxPoint x="805" y="410" as="targetPoint" />
          </mxGeometry>
        </mxCell>
        <mxCell id="81tsbfvJeieCF5N2Zwf--37" value="" style="endArrow=none;html=1;rounded=0;strokeColor=default;entryX=0.5;entryY=0.5;entryDx=0;entryDy=0;entryPerimeter=0;exitX=1;exitY=0.5;exitDx=0;exitDy=0;" parent="1" source="81tsbfvJeieCF5N2Zwf--14" target="81tsbfvJeieCF5N2Zwf--4" edge="1">
          <mxGeometry width="50" height="50" relative="1" as="geometry">
            <mxPoint x="514" y="430" as="sourcePoint" />
            <mxPoint x="815" y="420" as="targetPoint" />
          </mxGeometry>
        </mxCell>
        <mxCell id="81tsbfvJeieCF5N2Zwf--38" value="" style="endArrow=none;html=1;rounded=0;strokeColor=default;entryX=0.5;entryY=0.5;entryDx=0;entryDy=0;entryPerimeter=0;exitX=1;exitY=0.5;exitDx=0;exitDy=0;" parent="1" source="81tsbfvJeieCF5N2Zwf--13" target="81tsbfvJeieCF5N2Zwf--4" edge="1">
          <mxGeometry width="50" height="50" relative="1" as="geometry">
            <mxPoint x="524" y="440" as="sourcePoint" />
            <mxPoint x="825" y="430" as="targetPoint" />
          </mxGeometry>
        </mxCell>
        <mxCell id="81tsbfvJeieCF5N2Zwf--39" value="Organize the incoming books accordingly" style="ellipse;whiteSpace=wrap;html=1;" parent="1" vertex="1">
          <mxGeometry x="530" y="870" width="120" height="80" as="geometry" />
        </mxCell>
        <mxCell id="81tsbfvJeieCF5N2Zwf--40" value="" style="endArrow=none;html=1;rounded=0;strokeColor=default;entryX=0.5;entryY=0.5;entryDx=0;entryDy=0;entryPerimeter=0;exitX=1;exitY=0;exitDx=0;exitDy=0;" parent="1" source="81tsbfvJeieCF5N2Zwf--39" target="81tsbfvJeieCF5N2Zwf--4" edge="1">
          <mxGeometry width="50" height="50" relative="1" as="geometry">
            <mxPoint x="390" y="790" as="sourcePoint" />
            <mxPoint x="440" y="740" as="targetPoint" />
          </mxGeometry>
        </mxCell>
      </root>
    </mxGraphModel>
  </diagram>
</mxfile>
